<svg width="24" height="24" viewBox="0 0 24 24" fill="none" xmlns="http://www.w3.org/2000/svg">
<g clip-path="url(#clip0_7_67)">
<path d="M0.75 12C0.75 14.2125 1.3875 16.275 2.475 18H21.4875C22.575 16.275 23.2125 14.2125 23.2125 12C23.2125 9.7875 22.575 7.725 21.4875 6H2.475C1.3875 7.725 0.75 9.7875 0.75 12Z" fill="#FFCE31"/>
<path d="M21.525 6C19.5375 2.85 16.0125 0.75 12 0.75C7.9875 0.75 4.4625 2.85 2.475 6H21.525ZM2.475 18C4.4625 21.15 7.9875 23.25 12 23.25C16.0125 23.25 19.5375 21.15 21.525 18H2.475Z" fill="#ED4C5C"/>
<path d="M3.45 10.7625H4.65V11.4375H3.45V10.7625ZM3.45 15.7125H4.6875V16.35H3.45V15.7125Z" fill="#C8B100"/>
<path d="M3.3375 14.6625C3.225 14.7375 3.15 14.8125 3.15 14.85C3.15 14.8875 3.1875 14.925 3.2625 14.9625C3.3375 15 3.4125 15.075 3.375 15.15C3.45 15.075 3.4875 15 3.4875 14.925C3.4875 14.8125 3.4125 14.7 3.3375 14.6625Z" fill="#ED4C5C"/>
<path d="M3.6375 11.4375H4.5V15.7125H3.6375V11.4375Z" fill="white"/>
<path d="M5.4 13.0125C5.2125 12.9375 4.875 12.8625 4.5 12.8625C4.3875 12.8625 4.2375 12.8625 4.0875 12.9C3.5625 12.975 3.15 13.2 3.1875 13.35L3 12.9375C2.9625 12.75 3.4125 12.525 3.975 12.4125C4.1625 12.375 4.35 12.375 4.5 12.375C4.875 12.375 5.2125 12.4125 5.4 12.4875V13.0125Z" fill="#ED4C5C"/>
<path d="M3.6375 13.575C3.4125 13.575 3.225 13.5 3.225 13.3875C3.225 13.3125 3.3 13.2 3.45 13.125H3.675L3.6375 13.575ZM4.5 13.2375C4.65 13.275 4.7625 13.3125 4.8375 13.35C4.875 13.3875 4.725 13.5375 4.5 13.65V13.2375Z" fill="#ED4C5C"/>
<path d="M3.075 14.4C3.0375 14.325 3.3 14.175 3.6375 14.0625C3.7875 14.025 3.9 13.95 4.0875 13.875C4.5375 13.6875 4.9125 13.425 4.8375 13.35L4.9125 13.8C4.95 13.875 4.65 14.1 4.2 14.325C4.05 14.4 3.7875 14.5125 3.6375 14.55C3.375 14.625 3.15 14.775 3.15 14.8125L3.075 14.4Z" fill="#ED4C5C"/>
<path d="M11.5125 10.7625H12.7125V11.4375H11.5125V10.7625ZM11.475 15.7125H12.7125V16.35H11.475V15.7125Z" fill="#C8B100"/>
<path d="M12.825 14.6625C12.9375 14.7375 13.0125 14.8125 13.0125 14.85C13.0125 14.8875 12.975 14.925 12.9 14.9625C12.825 15.0375 12.75 15.15 12.7875 15.1875C12.7125 15.1125 12.675 15.0375 12.675 14.9625C12.675 14.8125 12.75 14.7 12.825 14.6625Z" fill="#ED4C5C"/>
<path d="M11.6625 11.4375H12.525V15.7125H11.6625V11.4375Z" fill="white"/>
<path d="M10.7625 13.0125C10.95 12.9375 11.2875 12.8625 11.6625 12.8625C11.775 12.8625 11.925 12.8625 12.075 12.9C12.6 12.975 13.0125 13.2 12.975 13.35L13.1625 12.9C13.2 12.7125 12.75 12.4875 12.1875 12.375H11.6625C11.2875 12.375 10.95 12.4125 10.7625 12.4875V13.0125Z" fill="#ED4C5C"/>
<path d="M12.525 13.575C12.75 13.575 12.9375 13.5 12.9375 13.3875C12.9375 13.3125 12.8625 13.2 12.7125 13.125H12.4875L12.525 13.575ZM11.6625 13.2375C11.5125 13.275 11.4 13.3125 11.325 13.35C11.2875 13.3875 11.4375 13.5375 11.6625 13.65V13.2375Z" fill="#ED4C5C"/>
<path d="M13.0875 14.4C13.125 14.325 12.8625 14.175 12.525 14.0625C12.375 14.025 12.2625 13.95 12.075 13.875C11.625 13.6875 11.25 13.425 11.325 13.35L11.25 13.8C11.2125 13.875 11.5125 14.1 11.9625 14.325C12.1125 14.4 12.375 14.5125 12.525 14.55C12.7875 14.625 13.0125 14.8125 12.975 14.85L13.0875 14.4ZM8.0625 8.3625C8.775 8.3625 10.2375 8.5125 10.7625 9.0375C10.2 10.3875 9.3 9.825 8.0625 9.825C6.8625 9.825 5.925 10.3875 5.3625 9.0375C5.8875 8.5125 7.3125 8.3625 8.0625 8.3625Z" fill="#ED4C5C"/>
<path d="M9.9 9.8625C9.45 9.6 8.775 9.5625 8.0625 9.5625C7.35 9.5625 6.675 9.6375 6.225 9.8625L6.375 10.5C6.7875 10.6125 7.3875 10.6875 8.0625 10.6875C8.7375 10.6875 9.3 10.6125 9.75 10.5L9.9 9.8625ZM10.5375 8.25C10.3875 8.1375 10.0875 8.025 9.825 8.025C9.7125 8.025 9.6 8.025 9.4875 8.0625C9.4875 8.0625 9.2625 7.7625 8.7375 7.7625C8.55 7.7625 8.4 7.8 8.25 7.875V7.8375C8.2125 7.7625 8.1375 7.6875 8.0625 7.6875C7.9875 7.6875 7.875 7.8 7.875 7.875V7.9125C7.725 7.8375 7.575 7.8 7.3875 7.8C6.8625 7.8 6.6375 8.1375 6.6375 8.1C6.525 8.0625 6.4125 8.0625 6.3 8.0625C4.575 8.0625 5.4375 9.225 5.4375 9.225L5.625 9C5.2125 8.475 5.5875 8.175 6.3375 8.175C6.45 8.175 6.525 8.175 6.6 8.2125C6.3375 8.5875 6.825 8.925 6.825 8.925L6.9375 8.7375C6.675 8.55 6.6375 7.9125 7.3875 7.9125C7.575 7.9125 7.725 7.95 7.875 8.0625C7.875 8.1 7.8375 8.625 7.8 8.7L8.1 8.9625L8.4 8.7C8.3625 8.5875 8.325 8.1 8.325 8.0625C8.4375 7.9875 8.625 7.9125 8.8125 7.9125C9.6 7.9125 9.6 8.55 9.2625 8.7375L9.375 8.925C9.375 8.925 9.7875 8.5875 9.6 8.2125C9.675 8.2125 9.7875 8.175 9.8625 8.175C10.7625 8.175 10.8 8.85 10.575 9L10.725 9.225C10.65 9.225 11.0625 8.7 10.5375 8.25Z" fill="#C8B100"/>
<path d="M7.8375 7.5375C7.8375 7.425 7.95 7.3125 8.0625 7.3125C8.2125 7.3125 8.2875 7.425 8.2875 7.5375C8.2875 7.65 8.175 7.7625 8.0625 7.7625C7.95 7.7625 7.8375 7.65 7.8375 7.5375Z" fill="#005BBF"/>
<path d="M7.9875 6.89999V7.01249H7.875V7.12499H7.9875V7.49999H7.8375V7.61249H8.2875L8.325 7.53749L8.2875 7.49999H8.1375V7.12499H8.25V7.01249H8.1375V6.89999H7.9875Z" fill="#C8B100"/>
<path d="M8.0625 10.6125C7.4625 10.6125 6.9375 10.5375 6.525 10.425C6.9375 10.3125 7.4625 10.2375 8.0625 10.2375C8.6625 10.2375 9.1875 10.3125 9.6 10.425C9.225 10.5375 8.6625 10.6125 8.0625 10.6125Z" fill="#ED4C5C"/>
<path d="M8.1 17.1C7.3875 17.1 6.7125 16.9125 6.1125 16.65C5.6625 16.425 5.4 16.0125 5.4 15.525V13.725H10.8V15.525C10.8 16.0125 10.5 16.4625 10.0875 16.65C9.4875 16.95 8.8125 17.1 8.1 17.1ZM8.0625 10.725H10.7625V13.725H8.0625V10.725Z" fill="white"/>
<path d="M8.1 15.525C8.1 16.2375 7.5 16.8 6.75 16.8C6 16.8 5.4 16.2375 5.4 15.525V13.725H8.1V15.525Z" fill="#ED4C5C"/>
<path d="M5.9625 16.575C6.0375 16.6125 6.15 16.6875 6.3 16.725V13.65H6L5.9625 16.575ZM5.3625 15.4875C5.3625 15.8625 5.5125 16.1625 5.6625 16.3125V13.65H5.3625V15.4875Z" fill="#C8B100"/>
<path d="M6.5625 16.8H6.8625V13.65H6.5625V16.8Z" fill="#C7B500"/>
<path d="M7.1625 16.725C7.275 16.6875 7.425 16.6125 7.5 16.575V13.65H7.2L7.1625 16.725Z" fill="#C8B100"/>
<path d="M5.3625 10.725H8.0625V13.725H5.3625V10.725Z" fill="#ED4C5C"/>
<path d="M7.8 16.3125C7.95 16.2 8.0625 15.9375 8.1 15.6375V13.6875H7.8V16.3125Z" fill="#C8B100"/>
<path d="M10.8 13.725V15.525C10.8 16.2375 10.2 16.8 9.45 16.8C8.7 16.8 8.1 16.2375 8.1 15.525V13.725H10.8ZM9.825 11.25C9.9375 11.475 9.9375 12.0375 9.6 11.925C9.675 11.9625 9.7125 12.225 9.825 12.375C10.0125 12.6 10.2375 12.4125 10.2 12.15C10.125 11.7375 10.1625 11.475 10.2375 11.0625C10.2375 11.1 10.425 11.1 10.5 11.025C10.4625 11.1375 10.425 11.2875 10.5 11.2875C10.425 11.4 10.2375 11.5875 10.2 11.7C10.1625 11.9625 10.575 12.45 10.125 12.5625C9.825 12.6375 10.0125 12.8625 10.125 12.975C10.125 12.975 9.975 13.4625 10.05 13.425C9.75 13.5375 9.825 13.275 9.825 13.275C9.975 12.825 9.5625 12.7875 9.6 12.7125C9.225 12.675 9.6375 13.05 9.3 13.05C9.225 13.05 9.075 13.125 9.075 13.125C8.6625 13.0875 8.8875 12.7125 9.0375 12.75C9.15 12.7875 9.2625 12.975 9.2625 12.7125C9.2625 12.7125 9.075 12.4125 9.5625 12.4125C9.375 12.4125 9.2625 12.2625 9.1875 12.075C9.1125 12.1125 9 12.3 8.5875 12.3375C8.5875 12.3375 8.475 11.925 8.5875 12C8.7375 12.075 8.8125 12.075 8.9625 11.925C8.8875 11.8125 8.4375 11.6625 8.5125 11.4C8.5125 11.325 8.7375 11.2125 8.7375 11.2125C8.7 11.4 8.8125 11.5875 9.0375 11.5875C9.3375 11.625 9.225 11.5125 9.2625 11.4375C9.3 11.3625 9.525 11.475 9.45 11.2875C9.45 11.25 9.1875 11.2125 9.2625 11.1C9.4125 10.9125 9.6375 11.0625 9.825 11.25ZM8.1 16.725L8.025 16.5375L8.1 16.3125L8.175 16.5375L8.1 16.725Z" fill="#ED4C5C"/>
<path d="M6.1875 11.3625V11.55H6.2625V11.7H6.075V12.075H6.1875V12.9H5.9625V13.3125H7.5V12.9H7.3125V12.075H7.3875V11.7H7.2V11.55H7.3125V11.3625H6.9375V11.55H7.0125V11.7H6.825V11.25H6.9375V11.0625H6.525V11.25H6.6375V11.7H6.45V11.55H6.525V11.3625H6.1875ZM10.425 15.975V14.1H8.475V15.975L9.375 16.3875H9.4875L10.425 15.975ZM9.375 14.25V14.8875L8.7375 14.25H9.375ZM8.5875 14.2875L9.3375 15.0375L8.5875 15.7875V14.2875ZM8.6625 15.9375L9.375 15.225V16.275L8.6625 15.9375ZM9.4875 16.2375V15.1875L10.2 15.9L9.4875 16.2375ZM10.275 15.7875L9.525 15.0375L10.275 14.2875V15.7875ZM9.4875 14.25H10.125L9.4875 14.8875V14.25Z" fill="#C8B100"/>
<path d="M7.2 13.6875C7.2 13.125 7.575 12.7125 8.0625 12.7125C8.55 12.7125 8.925 13.1625 8.925 13.6875C8.925 14.2125 8.55 14.6625 8.0625 14.6625C7.575 14.6625 7.2 14.25 7.2 13.6875Z" fill="#ED4C5C"/>
<path d="M7.4625 13.6875C7.4625 13.275 7.725 12.975 8.0625 12.975C8.4 12.975 8.6625 13.3125 8.6625 13.6875C8.6625 14.1 8.4 14.4 8.0625 14.4C7.7625 14.4375 7.4625 14.1 7.4625 13.6875Z" fill="#005BBF"/>
<path d="M7.8 13.2L7.65 13.6125L7.7625 13.65L7.6875 13.8H7.9125L7.8375 13.65L7.95 13.6125L7.8 13.2ZM8.3625 13.2L8.2125 13.6125L8.325 13.65L8.25 13.8H8.475L8.4375 13.65L8.55 13.6125L8.3625 13.2ZM8.1 13.6875L7.9125 14.1L8.025 14.1375L7.9875 14.2875H8.175L8.1375 14.1375L8.25 14.1L8.1 13.6875Z" fill="#C8B100"/>
</g>
<defs>
<clipPath id="clip0_7_67">
<rect width="24" height="24" fill="white"/>
</clipPath>
</defs>
</svg>
